<mxfile host="app.diagrams.net" modified="2021-11-22T13:40:25.322Z" agent="5.0 (Windows NT 10.0; Win64; x64) AppleWebKit/537.36 (KHTML, like Gecko) Chrome/96.0.4664.45 Safari/537.36" etag="dXG3gYpvflOI9WgKZq4-" version="15.8.3" type="github">
  <diagram name="Page-1" id="5d7acffa-a066-3a61-03fe-96351882024d">
    <mxGraphModel dx="1363" dy="735" grid="0" gridSize="10" guides="1" tooltips="1" connect="1" arrows="1" fold="1" page="1" pageScale="1" pageWidth="1100" pageHeight="850" background="#ffffff" math="0" shadow="0">
      <root>
        <mxCell id="0" />
        <mxCell id="1" parent="0" />
        <mxCell id="lbybOArzGUHNt2XsD-0A-1" value="&lt;font style=&quot;font-size: 21px&quot;&gt;พนักงาน&lt;/font&gt;" style="rounded=0;whiteSpace=wrap;html=1;" vertex="1" parent="1">
          <mxGeometry x="150" y="130" width="130" height="90" as="geometry" />
        </mxCell>
        <mxCell id="lbybOArzGUHNt2XsD-0A-2" value="0" style="swimlane;fontStyle=0;childLayout=stackLayout;horizontal=1;startSize=30;horizontalStack=0;resizeParent=1;resizeParentMax=0;resizeLast=0;collapsible=1;marginBottom=0;fontSize=21;rounded=1;arcSize=19;" vertex="1" parent="1">
          <mxGeometry x="460" y="350" width="180" height="150" as="geometry">
            <mxRectangle x="460" y="350" width="40" height="30" as="alternateBounds" />
          </mxGeometry>
        </mxCell>
        <mxCell id="lbybOArzGUHNt2XsD-0A-3" value="ร้านอาหารและเครื่องดื่มร้านมุมกาแฟคาเฟ่" style="text;strokeColor=none;fillColor=none;align=center;verticalAlign=middle;spacingLeft=4;spacingRight=4;overflow=hidden;points=[[0,0.5],[1,0.5]];portConstraint=eastwest;rotatable=0;fontSize=21;whiteSpace=wrap;" vertex="1" parent="lbybOArzGUHNt2XsD-0A-2">
          <mxGeometry y="30" width="180" height="120" as="geometry" />
        </mxCell>
        <mxCell id="lbybOArzGUHNt2XsD-0A-6" value="ลูกค้า" style="rounded=0;whiteSpace=wrap;html=1;fontSize=21;align=center;verticalAlign=middle;" vertex="1" parent="1">
          <mxGeometry x="830" y="600" width="130" height="90" as="geometry" />
        </mxCell>
        <mxCell id="lbybOArzGUHNt2XsD-0A-7" value="" style="endArrow=classic;html=1;rounded=0;fontSize=21;entryX=0.84;entryY=-0.001;entryDx=0;entryDy=0;entryPerimeter=0;" edge="1" parent="1" target="lbybOArzGUHNt2XsD-0A-2">
          <mxGeometry width="50" height="50" relative="1" as="geometry">
            <mxPoint x="280" y="140" as="sourcePoint" />
            <mxPoint x="560" y="141" as="targetPoint" />
            <Array as="points">
              <mxPoint x="610" y="140" />
            </Array>
          </mxGeometry>
        </mxCell>
        <mxCell id="lbybOArzGUHNt2XsD-0A-9" value="&lt;font style=&quot;font-size: 16px&quot;&gt;เพิ่ม ลบ แก้ไขข้อมูลสินค้า&lt;/font&gt;" style="text;html=1;resizable=0;autosize=1;align=center;verticalAlign=middle;points=[];fillColor=none;strokeColor=none;rounded=0;fontSize=21;" vertex="1" parent="1">
          <mxGeometry x="340" y="114" width="180" height="30" as="geometry" />
        </mxCell>
        <mxCell id="lbybOArzGUHNt2XsD-0A-10" value="" style="endArrow=classic;html=1;rounded=0;fontSize=21;entryX=0.722;entryY=0;entryDx=0;entryDy=0;entryPerimeter=0;" edge="1" parent="1" target="lbybOArzGUHNt2XsD-0A-2">
          <mxGeometry width="50" height="50" relative="1" as="geometry">
            <mxPoint x="280" y="160" as="sourcePoint" />
            <mxPoint x="611.1999999999998" y="371.64999999999986" as="targetPoint" />
            <Array as="points">
              <mxPoint x="590" y="160" />
            </Array>
          </mxGeometry>
        </mxCell>
        <mxCell id="lbybOArzGUHNt2XsD-0A-11" value="&lt;font style=&quot;font-size: 16px&quot;&gt;ข้อมูลการชำระเงิน&lt;/font&gt;" style="text;html=1;resizable=0;autosize=1;align=center;verticalAlign=middle;points=[];fillColor=none;strokeColor=none;rounded=0;fontSize=21;" vertex="1" parent="1">
          <mxGeometry x="365" y="134" width="130" height="30" as="geometry" />
        </mxCell>
        <mxCell id="lbybOArzGUHNt2XsD-0A-12" value="" style="endArrow=classic;html=1;rounded=0;fontSize=21;entryX=0.617;entryY=-0.004;entryDx=0;entryDy=0;entryPerimeter=0;" edge="1" parent="1" target="lbybOArzGUHNt2XsD-0A-2">
          <mxGeometry width="50" height="50" relative="1" as="geometry">
            <mxPoint x="280" y="180" as="sourcePoint" />
            <mxPoint x="589.9599999999998" y="370" as="targetPoint" />
            <Array as="points">
              <mxPoint x="570" y="180" />
            </Array>
          </mxGeometry>
        </mxCell>
        <mxCell id="lbybOArzGUHNt2XsD-0A-13" value="&lt;font style=&quot;font-size: 16px&quot;&gt;ข้อมูลสินค้า&lt;/font&gt;" style="text;html=1;resizable=0;autosize=1;align=center;verticalAlign=middle;points=[];fillColor=none;strokeColor=none;rounded=0;fontSize=21;" vertex="1" parent="1">
          <mxGeometry x="385" y="154" width="90" height="30" as="geometry" />
        </mxCell>
        <mxCell id="lbybOArzGUHNt2XsD-0A-14" value="" style="endArrow=classic;html=1;rounded=0;fontSize=16;entryX=0.75;entryY=1;entryDx=0;entryDy=0;exitX=-0.004;exitY=0.165;exitDx=0;exitDy=0;exitPerimeter=0;" edge="1" parent="1" source="lbybOArzGUHNt2XsD-0A-3" target="lbybOArzGUHNt2XsD-0A-1">
          <mxGeometry width="50" height="50" relative="1" as="geometry">
            <mxPoint x="248" y="400" as="sourcePoint" />
            <mxPoint x="480" y="390" as="targetPoint" />
            <Array as="points">
              <mxPoint x="248" y="400" />
            </Array>
          </mxGeometry>
        </mxCell>
        <mxCell id="lbybOArzGUHNt2XsD-0A-15" value="&lt;font style=&quot;font-size: 16px&quot;&gt;แสดงยอดชำระเงิน&lt;/font&gt;" style="text;html=1;resizable=0;autosize=1;align=center;verticalAlign=middle;points=[];fillColor=none;strokeColor=none;rounded=0;fontSize=21;" vertex="1" parent="1">
          <mxGeometry x="284" y="375" width="140" height="30" as="geometry" />
        </mxCell>
        <mxCell id="lbybOArzGUHNt2XsD-0A-16" value="" style="endArrow=classic;html=1;rounded=0;fontSize=21;" edge="1" parent="1" target="lbybOArzGUHNt2XsD-0A-2">
          <mxGeometry width="50" height="50" relative="1" as="geometry">
            <mxPoint x="280" y="201" as="sourcePoint" />
            <mxPoint x="571.06" y="370.4" as="targetPoint" />
            <Array as="points">
              <mxPoint x="550" y="201" />
            </Array>
          </mxGeometry>
        </mxCell>
        <mxCell id="lbybOArzGUHNt2XsD-0A-17" value="&lt;font style=&quot;font-size: 16px&quot;&gt;แก้ไขข้อมูลข่าวสาร&lt;/font&gt;" style="text;html=1;resizable=0;autosize=1;align=center;verticalAlign=middle;points=[];fillColor=none;strokeColor=none;rounded=0;fontSize=21;" vertex="1" parent="1">
          <mxGeometry x="360" y="175" width="140" height="30" as="geometry" />
        </mxCell>
        <mxCell id="lbybOArzGUHNt2XsD-0A-18" value="" style="endArrow=classic;html=1;rounded=0;fontSize=16;exitX=-0.004;exitY=0.165;exitDx=0;exitDy=0;exitPerimeter=0;" edge="1" parent="1">
          <mxGeometry width="50" height="50" relative="1" as="geometry">
            <mxPoint x="459.28" y="420.79999999999995" as="sourcePoint" />
            <mxPoint x="230" y="220" as="targetPoint" />
            <Array as="points">
              <mxPoint x="230" y="421" />
            </Array>
          </mxGeometry>
        </mxCell>
        <mxCell id="lbybOArzGUHNt2XsD-0A-19" value="&lt;font style=&quot;font-size: 16px&quot;&gt;แสดงรายละเอียดลูกค้า&lt;/font&gt;" style="text;html=1;resizable=0;autosize=1;align=center;verticalAlign=middle;points=[];fillColor=none;strokeColor=none;rounded=0;fontSize=21;" vertex="1" parent="1">
          <mxGeometry x="275" y="396" width="159" height="31" as="geometry" />
        </mxCell>
        <mxCell id="lbybOArzGUHNt2XsD-0A-20" value="" style="endArrow=classic;html=1;rounded=0;fontSize=16;entryX=0.466;entryY=1.005;entryDx=0;entryDy=0;exitX=-0.004;exitY=0.165;exitDx=0;exitDy=0;exitPerimeter=0;entryPerimeter=0;" edge="1" parent="1" target="lbybOArzGUHNt2XsD-0A-1">
          <mxGeometry width="50" height="50" relative="1" as="geometry">
            <mxPoint x="460.27999999999975" y="440.79999999999995" as="sourcePoint" />
            <mxPoint x="230.95000000000005" y="240.80999999999995" as="targetPoint" />
            <Array as="points">
              <mxPoint x="211" y="441" />
            </Array>
          </mxGeometry>
        </mxCell>
        <mxCell id="lbybOArzGUHNt2XsD-0A-21" value="&lt;font style=&quot;font-size: 16px&quot;&gt;แสดงหน้าเว็บ&lt;/font&gt;" style="text;html=1;resizable=0;autosize=1;align=center;verticalAlign=middle;points=[];fillColor=none;strokeColor=none;rounded=0;fontSize=21;" vertex="1" parent="1">
          <mxGeometry x="303" y="417" width="100" height="30" as="geometry" />
        </mxCell>
        <mxCell id="lbybOArzGUHNt2XsD-0A-22" value="" style="endArrow=classic;html=1;rounded=0;fontSize=16;exitX=0.125;exitY=0.007;exitDx=0;exitDy=0;exitPerimeter=0;entryX=1.001;entryY=0.661;entryDx=0;entryDy=0;entryPerimeter=0;" edge="1" parent="1" source="lbybOArzGUHNt2XsD-0A-6" target="lbybOArzGUHNt2XsD-0A-3">
          <mxGeometry width="50" height="50" relative="1" as="geometry">
            <mxPoint x="852" y="407" as="sourcePoint" />
            <mxPoint x="641" y="407" as="targetPoint" />
            <Array as="points">
              <mxPoint x="846" y="459" />
            </Array>
          </mxGeometry>
        </mxCell>
        <mxCell id="lbybOArzGUHNt2XsD-0A-23" value="&lt;font style=&quot;font-size: 16px&quot;&gt;อ่านข้อมูลข่าวสาร&lt;/font&gt;" style="text;html=1;resizable=0;autosize=1;align=center;verticalAlign=middle;points=[];fillColor=none;strokeColor=none;rounded=0;fontSize=21;" vertex="1" parent="1">
          <mxGeometry x="679" y="431" width="126" height="31" as="geometry" />
        </mxCell>
        <mxCell id="lbybOArzGUHNt2XsD-0A-24" value="" style="endArrow=classic;html=1;rounded=0;fontSize=16;entryX=1.001;entryY=0.661;entryDx=0;entryDy=0;entryPerimeter=0;" edge="1" parent="1">
          <mxGeometry width="50" height="50" relative="1" as="geometry">
            <mxPoint x="873" y="600" as="sourcePoint" />
            <mxPoint x="639.9999999999999" y="434.31999999999994" as="targetPoint" />
            <Array as="points">
              <mxPoint x="873" y="434" />
            </Array>
          </mxGeometry>
        </mxCell>
        <mxCell id="lbybOArzGUHNt2XsD-0A-25" value="&lt;font style=&quot;font-size: 16px&quot;&gt;ข้อมูลลูกค้า&lt;/font&gt;" style="text;html=1;resizable=0;autosize=1;align=center;verticalAlign=middle;points=[];fillColor=none;strokeColor=none;rounded=0;fontSize=21;" vertex="1" parent="1">
          <mxGeometry x="699" y="408" width="86" height="31" as="geometry" />
        </mxCell>
        <mxCell id="lbybOArzGUHNt2XsD-0A-26" value="" style="endArrow=classic;html=1;rounded=0;fontSize=16;entryX=1.001;entryY=0.661;entryDx=0;entryDy=0;entryPerimeter=0;exitX=0.5;exitY=0;exitDx=0;exitDy=0;" edge="1" parent="1" source="lbybOArzGUHNt2XsD-0A-6">
          <mxGeometry width="50" height="50" relative="1" as="geometry">
            <mxPoint x="895" y="598" as="sourcePoint" />
            <mxPoint x="641" y="411.31999999999994" as="targetPoint" />
            <Array as="points">
              <mxPoint x="895" y="411" />
            </Array>
          </mxGeometry>
        </mxCell>
        <mxCell id="lbybOArzGUHNt2XsD-0A-27" value="&lt;font style=&quot;font-size: 16px&quot;&gt;ข้อมูลสินค้า&lt;/font&gt;" style="text;html=1;resizable=0;autosize=1;align=center;verticalAlign=middle;points=[];fillColor=none;strokeColor=none;rounded=0;fontSize=21;" vertex="1" parent="1">
          <mxGeometry x="699" y="384" width="86" height="31" as="geometry" />
        </mxCell>
        <mxCell id="lbybOArzGUHNt2XsD-0A-28" value="" style="endArrow=classic;html=1;rounded=0;fontSize=16;entryX=1.001;entryY=0.661;entryDx=0;entryDy=0;entryPerimeter=0;exitX=0.678;exitY=0;exitDx=0;exitDy=0;exitPerimeter=0;" edge="1" parent="1" source="lbybOArzGUHNt2XsD-0A-6">
          <mxGeometry width="50" height="50" relative="1" as="geometry">
            <mxPoint x="895" y="575" as="sourcePoint" />
            <mxPoint x="641" y="386.31999999999994" as="targetPoint" />
            <Array as="points">
              <mxPoint x="919" y="386" />
            </Array>
          </mxGeometry>
        </mxCell>
        <mxCell id="lbybOArzGUHNt2XsD-0A-29" value="&lt;font style=&quot;font-size: 16px&quot;&gt;ข้อมูลการสั่งซื้อ&lt;/font&gt;" style="text;html=1;resizable=0;autosize=1;align=center;verticalAlign=middle;points=[];fillColor=none;strokeColor=none;rounded=0;fontSize=21;" vertex="1" parent="1">
          <mxGeometry x="687" y="359" width="111" height="31" as="geometry" />
        </mxCell>
        <mxCell id="lbybOArzGUHNt2XsD-0A-30" value="" style="endArrow=classic;html=1;rounded=0;fontSize=16;entryX=0.013;entryY=0.144;entryDx=0;entryDy=0;entryPerimeter=0;exitX=0.9;exitY=1.008;exitDx=0;exitDy=0;exitPerimeter=0;" edge="1" parent="1" source="lbybOArzGUHNt2XsD-0A-3" target="lbybOArzGUHNt2XsD-0A-6">
          <mxGeometry width="50" height="50" relative="1" as="geometry">
            <mxPoint x="525" y="613" as="sourcePoint" />
            <mxPoint x="661" y="593" as="targetPoint" />
            <Array as="points">
              <mxPoint x="622" y="613" />
            </Array>
          </mxGeometry>
        </mxCell>
        <mxCell id="lbybOArzGUHNt2XsD-0A-31" value="&lt;font style=&quot;font-size: 16px&quot;&gt;แสดงข้อมูลข่าวสาร&lt;/font&gt;" style="text;html=1;resizable=0;autosize=1;align=center;verticalAlign=middle;points=[];fillColor=none;strokeColor=none;rounded=0;fontSize=21;" vertex="1" parent="1">
          <mxGeometry x="661" y="585" width="136" height="31" as="geometry" />
        </mxCell>
        <mxCell id="lbybOArzGUHNt2XsD-0A-32" value="" style="endArrow=classic;html=1;rounded=0;fontSize=16;entryX=0.013;entryY=0.144;entryDx=0;entryDy=0;entryPerimeter=0;exitX=0.802;exitY=1.005;exitDx=0;exitDy=0;exitPerimeter=0;" edge="1" parent="1" source="lbybOArzGUHNt2XsD-0A-3">
          <mxGeometry width="50" height="50" relative="1" as="geometry">
            <mxPoint x="622" y="523.96" as="sourcePoint" />
            <mxPoint x="831.6899999999998" y="635.96" as="targetPoint" />
            <Array as="points">
              <mxPoint x="604" y="636" />
            </Array>
          </mxGeometry>
        </mxCell>
        <mxCell id="lbybOArzGUHNt2XsD-0A-33" value="&lt;font style=&quot;font-size: 16px&quot;&gt;แสดงข้อมูลลูกค้า&lt;/font&gt;" style="text;html=1;resizable=0;autosize=1;align=center;verticalAlign=middle;points=[];fillColor=none;strokeColor=none;rounded=0;fontSize=21;" vertex="1" parent="1">
          <mxGeometry x="669" y="609" width="122" height="31" as="geometry" />
        </mxCell>
        <mxCell id="lbybOArzGUHNt2XsD-0A-34" value="" style="endArrow=classic;html=1;rounded=0;fontSize=16;entryX=0.013;entryY=0.144;entryDx=0;entryDy=0;entryPerimeter=0;exitX=0.687;exitY=1.002;exitDx=0;exitDy=0;exitPerimeter=0;" edge="1" parent="1" source="lbybOArzGUHNt2XsD-0A-3">
          <mxGeometry width="50" height="50" relative="1" as="geometry">
            <mxPoint x="604.3599999999999" y="521.6" as="sourcePoint" />
            <mxPoint x="831.6899999999998" y="656.96" as="targetPoint" />
            <Array as="points">
              <mxPoint x="584" y="657" />
            </Array>
          </mxGeometry>
        </mxCell>
        <mxCell id="lbybOArzGUHNt2XsD-0A-35" value="&lt;font style=&quot;font-size: 16px&quot;&gt;แสดงข้อมูลสินค้า&lt;/font&gt;" style="text;html=1;resizable=0;autosize=1;align=center;verticalAlign=middle;points=[];fillColor=none;strokeColor=none;rounded=0;fontSize=21;" vertex="1" parent="1">
          <mxGeometry x="669" y="630" width="123" height="31" as="geometry" />
        </mxCell>
        <mxCell id="lbybOArzGUHNt2XsD-0A-36" value="" style="endArrow=classic;html=1;rounded=0;fontSize=16;entryX=0.013;entryY=0.144;entryDx=0;entryDy=0;entryPerimeter=0;exitX=0.581;exitY=1.006;exitDx=0;exitDy=0;exitPerimeter=0;" edge="1" parent="1" source="lbybOArzGUHNt2XsD-0A-3">
          <mxGeometry width="50" height="50" relative="1" as="geometry">
            <mxPoint x="583.6600000000001" y="521.24" as="sourcePoint" />
            <mxPoint x="831.6899999999998" y="677.96" as="targetPoint" />
            <Array as="points">
              <mxPoint x="565" y="678" />
            </Array>
          </mxGeometry>
        </mxCell>
        <mxCell id="lbybOArzGUHNt2XsD-0A-37" value="&lt;font style=&quot;font-size: 16px&quot;&gt;แสดงข้อมูลการสั่งซื้อ&lt;/font&gt;" style="text;html=1;resizable=0;autosize=1;align=center;verticalAlign=middle;points=[];fillColor=none;strokeColor=none;rounded=0;fontSize=21;" vertex="1" parent="1">
          <mxGeometry x="657" y="651" width="148" height="31" as="geometry" />
        </mxCell>
      </root>
    </mxGraphModel>
  </diagram>
</mxfile>
